<mxfile host="65bd71144e">
    <diagram id="BZk2Cr5AkCIeS33odpUm" name="第 1 页">
        <mxGraphModel dx="1140" dy="859" grid="1" gridSize="10" guides="1" tooltips="1" connect="1" arrows="1" fold="1" page="1" pageScale="1" pageWidth="2336" pageHeight="1654" math="0" shadow="0">
            <root>
                <mxCell id="0"/>
                <mxCell id="1" parent="0"/>
                <mxCell id="2" value="&lt;font face=&quot;Comic Sans MS&quot; style=&quot;font-size: 22px;&quot;&gt;DOC&lt;/font&gt;" style="rounded=0;whiteSpace=wrap;html=1;" parent="1" vertex="1">
                    <mxGeometry x="140" y="370" width="120" height="60" as="geometry"/>
                </mxCell>
                <mxCell id="3" value="chunk1" style="rounded=0;whiteSpace=wrap;html=1;fontFamily=Comic Sans MS;fontSize=22;" parent="1" vertex="1">
                    <mxGeometry x="390" y="220" width="120" height="60" as="geometry"/>
                </mxCell>
                <mxCell id="4" value="chunk2" style="rounded=0;whiteSpace=wrap;html=1;fontFamily=Comic Sans MS;fontSize=22;" parent="1" vertex="1">
                    <mxGeometry x="390" y="320" width="120" height="60" as="geometry"/>
                </mxCell>
                <mxCell id="5" value="chunk-m" style="rounded=0;whiteSpace=wrap;html=1;fontFamily=Comic Sans MS;fontSize=22;" parent="1" vertex="1">
                    <mxGeometry x="390" y="420" width="120" height="60" as="geometry"/>
                </mxCell>
                <mxCell id="6" value="chunk-n&amp;nbsp;" style="rounded=0;whiteSpace=wrap;html=1;fontFamily=Comic Sans MS;fontSize=22;" parent="1" vertex="1">
                    <mxGeometry x="390" y="520" width="120" height="60" as="geometry"/>
                </mxCell>
                <mxCell id="7" value="" style="endArrow=classic;html=1;fontFamily=Comic Sans MS;fontSize=22;entryX=0;entryY=0.5;entryDx=0;entryDy=0;exitX=1;exitY=0.25;exitDx=0;exitDy=0;" parent="1" source="2" target="3" edge="1">
                    <mxGeometry width="50" height="50" relative="1" as="geometry">
                        <mxPoint x="260" y="360" as="sourcePoint"/>
                        <mxPoint x="310" y="310" as="targetPoint"/>
                    </mxGeometry>
                </mxCell>
                <mxCell id="8" value="" style="endArrow=classic;html=1;fontFamily=Comic Sans MS;fontSize=22;exitX=1;exitY=0.5;exitDx=0;exitDy=0;entryX=0;entryY=0.5;entryDx=0;entryDy=0;" parent="1" source="2" target="4" edge="1">
                    <mxGeometry width="50" height="50" relative="1" as="geometry">
                        <mxPoint x="550" y="460" as="sourcePoint"/>
                        <mxPoint x="600" y="410" as="targetPoint"/>
                    </mxGeometry>
                </mxCell>
                <mxCell id="9" value="" style="endArrow=classic;html=1;fontFamily=Comic Sans MS;fontSize=22;exitX=1.01;exitY=0.62;exitDx=0;exitDy=0;exitPerimeter=0;entryX=0;entryY=0.5;entryDx=0;entryDy=0;" parent="1" source="2" target="5" edge="1">
                    <mxGeometry width="50" height="50" relative="1" as="geometry">
                        <mxPoint x="550" y="460" as="sourcePoint"/>
                        <mxPoint x="600" y="410" as="targetPoint"/>
                    </mxGeometry>
                </mxCell>
                <mxCell id="10" value="" style="endArrow=classic;html=1;fontFamily=Comic Sans MS;fontSize=22;exitX=1.023;exitY=0.887;exitDx=0;exitDy=0;exitPerimeter=0;entryX=0;entryY=0.4;entryDx=0;entryDy=0;entryPerimeter=0;" parent="1" source="2" target="6" edge="1">
                    <mxGeometry width="50" height="50" relative="1" as="geometry">
                        <mxPoint x="550" y="460" as="sourcePoint"/>
                        <mxPoint x="600" y="410" as="targetPoint"/>
                    </mxGeometry>
                </mxCell>
                <mxCell id="13" value="&lt;h3&gt;&lt;font face=&quot;Comic Sans MS&quot;&gt;[ &quot;\n\n&quot; , &quot;\n&quot; , &quot; &quot; , &quot;&quot;]&lt;/font&gt;&lt;/h3&gt;" style="text;html=1;strokeColor=none;fillColor=none;align=center;verticalAlign=middle;whiteSpace=wrap;rounded=0;fontSize=28;" vertex="1" parent="1">
                    <mxGeometry x="668" y="290" width="500" height="30" as="geometry"/>
                </mxCell>
                <mxCell id="14" value="&lt;font face=&quot;Tahoma&quot;&gt;段落&lt;/font&gt;" style="text;html=1;strokeColor=none;fillColor=none;align=center;verticalAlign=middle;whiteSpace=wrap;rounded=0;fontFamily=Comic Sans MS;fontSize=28;" vertex="1" parent="1">
                    <mxGeometry x="758" y="480" width="60" height="30" as="geometry"/>
                </mxCell>
                <mxCell id="15" value="句子" style="text;html=1;strokeColor=none;fillColor=none;align=center;verticalAlign=middle;whiteSpace=wrap;rounded=0;fontFamily=Comic Sans MS;fontSize=28;" vertex="1" parent="1">
                    <mxGeometry x="878" y="480" width="60" height="30" as="geometry"/>
                </mxCell>
                <mxCell id="16" value="单词" style="text;html=1;strokeColor=none;fillColor=none;align=center;verticalAlign=middle;whiteSpace=wrap;rounded=0;fontFamily=Comic Sans MS;fontSize=28;" vertex="1" parent="1">
                    <mxGeometry x="988" y="480" width="60" height="30" as="geometry"/>
                </mxCell>
                <mxCell id="17" value="字符" style="text;html=1;strokeColor=none;fillColor=none;align=center;verticalAlign=middle;whiteSpace=wrap;rounded=0;fontFamily=Comic Sans MS;fontSize=28;" vertex="1" parent="1">
                    <mxGeometry x="1088" y="480" width="60" height="30" as="geometry"/>
                </mxCell>
                <mxCell id="20" value="" style="endArrow=classic;html=1;fontFamily=Tahoma;fontSize=28;" edge="1" parent="1">
                    <mxGeometry width="50" height="50" relative="1" as="geometry">
                        <mxPoint x="778" y="360" as="sourcePoint"/>
                        <mxPoint x="788" y="470" as="targetPoint"/>
                    </mxGeometry>
                </mxCell>
                <mxCell id="21" value="" style="endArrow=classic;html=1;fontFamily=Tahoma;fontSize=28;" edge="1" parent="1">
                    <mxGeometry width="50" height="50" relative="1" as="geometry">
                        <mxPoint x="918" y="360" as="sourcePoint"/>
                        <mxPoint x="918" y="470" as="targetPoint"/>
                    </mxGeometry>
                </mxCell>
                <mxCell id="22" value="" style="endArrow=classic;html=1;fontFamily=Tahoma;fontSize=28;" edge="1" parent="1">
                    <mxGeometry width="50" height="50" relative="1" as="geometry">
                        <mxPoint x="1008" y="360" as="sourcePoint"/>
                        <mxPoint x="1028" y="470" as="targetPoint"/>
                    </mxGeometry>
                </mxCell>
                <mxCell id="23" value="" style="endArrow=classic;html=1;fontFamily=Tahoma;fontSize=28;" edge="1" parent="1">
                    <mxGeometry width="50" height="50" relative="1" as="geometry">
                        <mxPoint x="1098" y="360" as="sourcePoint"/>
                        <mxPoint x="1118" y="470" as="targetPoint"/>
                    </mxGeometry>
                </mxCell>
            </root>
        </mxGraphModel>
    </diagram>
</mxfile>